<svg width="20" height="22" viewBox="0 0 20 22" fill="none" xmlns="http://www.w3.org/2000/svg">
<rect y="2" width="20" height="20" fill="#006351"/>
<rect y="2" width="20" height="20" stroke="#1B1717"/>
<path d="M17.042 18.088C16.6567 18.5413 16.209 18.887 15.699 19.125C15.189 19.363 14.6393 19.482 14.05 19.482C13.302 19.482 12.5993 19.3007 11.942 18.938C11.296 18.5867 10.5537 17.9803 9.715 17.119C8.593 17.0623 7.57867 16.762 6.672 16.218C5.77667 15.674 5.074 14.9543 4.564 14.059C4.06533 13.1523 3.816 12.1493 3.816 11.05C3.816 9.90533 4.088 8.86833 4.632 7.939C5.18733 7.00967 5.94667 6.28433 6.91 5.763C7.87333 5.23033 8.95567 4.964 10.157 4.964C11.347 4.964 12.4237 5.23033 13.387 5.763C14.3503 6.28433 15.104 7.00967 15.648 7.939C16.192 8.857 16.464 9.894 16.464 11.05C16.464 12.0247 16.2657 12.92 15.869 13.736C15.4837 14.552 14.934 15.2377 14.22 15.793C13.5173 16.3483 12.707 16.7337 11.789 16.949C12.1857 17.3683 12.5653 17.6687 12.928 17.85C13.302 18.0427 13.6817 18.139 14.067 18.139C14.9057 18.139 15.631 17.799 16.243 17.119L17.042 18.088ZM5.516 11.05C5.516 11.9113 5.71433 12.6933 6.111 13.396C6.519 14.0873 7.07433 14.6313 7.777 15.028C8.491 15.4247 9.28433 15.623 10.157 15.623C11.0183 15.623 11.8003 15.4247 12.503 15.028C13.2057 14.6313 13.7553 14.0873 14.152 13.396C14.56 12.6933 14.764 11.9113 14.764 11.05C14.764 10.1887 14.56 9.41233 14.152 8.721C13.7553 8.01833 13.2057 7.46867 12.503 7.072C11.8003 6.67533 11.0183 6.477 10.157 6.477C9.28433 6.477 8.491 6.67533 7.777 7.072C7.07433 7.46867 6.519 8.01833 6.111 8.721C5.71433 9.41233 5.516 10.1887 5.516 11.05Z" fill="#EEEBDD"/>
</svg>
